<svg clip-rule="evenodd" fill-rule="evenodd" stroke-linejoin="round" stroke-miterlimit="2"
  viewBox="0 0 209 209" xmlns="http://www.w3.org/2000/svg">
  <path
    d="m185.523 57.672c-.014-1.574-.957-2.343-1.69-3.256 0 0-35.983-43.288-43.639-52.031-.393-.449-.416-.454-1.27-1.317-.568-.574-1.374-1.068-2.015-1.068-58.476 0-65.607-.001-98.316-.002-8.716 0-15.792 7.077-15.792 15.792v176.75c0 8.716 7.076 15.792 15.792 15.792h131.146c8.715 0 15.792-7.076 15.792-15.792z"
    fill="#333f4c" />
  <g fill-rule="nonzero">
    <path
      d="m92.156 58.979v4.943h2.303v6.657l-1.732.403c-7.968 1.849-15.617 6.489-21.013 12.793-9.095 10.625-11.919 25.149-7.498 38.463 4.186 12.608 14.794 22.51 27.587 25.771 3.749.942 6.119 1.244 10.07 1.244 3.58-.017 5.951-.269 9.077-.992 3.077-.706 7.464-2.404 10.12-3.917.622-.353 1.194-.605 1.261-.554.067.05.874 1.311 1.799 2.824l1.647 2.723 10.205.017h10.187v-19.248h-4.589v-60.183h-19.232v2.74c0 1.496-.05 2.724-.118 2.724-.067 0-1.227-.538-2.605-1.211-3.009-1.496-5.212-2.32-8.187-3.076l-2.253-.555-.05-3.312-.034-3.311h2.471v-4.943h-19.416zm8.657 30.176v2.303h2.119v-2.337l1.26.118c4.153.42 8.49 2.42 11.701 5.413 3.446 3.227 5.883 8.035 6.354 12.557l.135 1.194h-2.337v2.286h2.303v.521c0 1.665-1.042 5.38-2.084 7.431-1.951 3.849-5.229 7.195-8.961 9.111-2.37 1.227-5.698 2.186-7.581 2.186h-.79v-2.119h-2.119v2.119h-.706c-.991 0-3.093-.438-4.656-.959-5.279-1.765-9.633-5.648-12.037-10.742-.924-1.967-1.647-4.488-1.798-6.354l-.101-1.362h2.353v-2.118h-2.303v-.605c0-1.849 1.11-5.581 2.32-7.868 2.387-4.471 6.825-8.203 11.583-9.784 1.26-.42 3.849-.958 4.673-.975z"
      fill="#fff" />
    <path
      d="m107.838 103.025-4.42 3.839-1.26-.06c-2.58-.14-4.46 1.64-4.46 4.24 0 1.42.18 1.96 1.06 2.96.92 1.06 1.76 1.44 3.14 1.44 2.62 0 4.56-2.26 4.24-4.94-.08-.74.04-.92 3.32-4.62 1.88-2.119 3.66-4.099 3.96-4.419l.52-.6-1.7-1.7z"
      fill="#fff" />
    <path
      d="m175.736 165.695c-.265-.477-.794-.794-1.377-.794h-8.102l4.872-14.881c.159-.477.053-1.006-.212-1.43s-.794-.636-1.271-.636h-12.816c-.688 0-1.271.424-1.482 1.113l-8.738 26.478c-.159.477-.053 1.006.211 1.43.318.424.795.635 1.271.635h9.533l-1.218 18.641c-.053.742.423 1.43 1.165 1.642.159.053.318.053.423.053.583 0 1.113-.318 1.377-.847l16.417-29.868c.265-.477.265-1.059-.053-1.536z"
      fill="#fec136" />
  </g>
</svg>
