<?xml version="1.0" encoding="utf-8"?>
<!-- Generator: Adobe Illustrator 27.5.0, SVG Export Plug-In . SVG Version: 6.00 Build 0)  -->
<svg version="1.1" id="Layer_1" xmlns="http://www.w3.org/2000/svg" xmlns:xlink="http://www.w3.org/1999/xlink" x="0px" y="0px"
	 viewBox="0 0 512 512" style="enable-background:new 0 0 512 512;" xml:space="preserve">
<style type="text/css">
	.st0{fill:#333F4C;}
	.st1{fill:#FEC136;}
	.st2{fill:#FF282D;}
</style>
<g>
	<g transform="matrix(1,0,0,1,-9.89013,-0.000361259)">
		<path class="st0" d="M280.6,91.7l-74.7-89c-1.8-2-4.3-2.9-6.9-2.6H39.5C23.2,0.1,9.9,13.4,9.9,29.7v290.7
			c0,16.3,13.3,29.6,29.6,29.6h214c16.3,0,29.6-13.3,29.6-29.6V97.9c0-0.2,0.1-0.4,0.1-0.6C283.3,95.1,282.2,93,280.6,91.7z"/>
	</g>
	<g transform="matrix(0.31601,0,0,0.31601,-0.39345,9.51534)">
		<path class="st1" d="M625.2,427.7c-3.5-6.3-10.5-10.5-18.2-10.5H499.9l64.4-196.7c2.1-6.3,0.7-13.3-2.8-18.9
			c-3.5-5.6-10.5-8.4-16.8-8.4H375.2c-9.1,0-16.8,5.6-19.6,14.7L240.1,558c-2.1,6.3-0.7,13.3,2.8,18.9c4.2,5.6,10.5,8.4,16.8,8.4
			h126l-16.1,246.4c-0.7,9.8,5.6,18.9,15.4,21.7c2.1,0.7,4.2,0.7,5.6,0.7c7.7,0,14.7-4.2,18.2-11.2l217-394.9
			C629.4,441.7,629.4,434,625.2,427.7z"/>
	</g>
</g>
<path class="st2" d="M385.9,206.2v-25.3h9.2V162h-75.5v18.9h9.2v25.5c-72.6,14-125.1,77.5-125.1,151.4
	c0,85.2,69.1,154.1,154.1,154.1C443,512,512,442.9,512,357.9C512,282.3,457.6,219.5,385.9,206.2z M362.1,437.1v-8.9h-9v8.9
	c-40.2-2.3-72.2-34.8-74.4-74.9h8.9v-9.1h-8.9c2.5-40,34.4-71.9,74.4-74.2v8.9h9.1v-8.9c40.4,2.1,72.6,34.3,74.9,74.6h-8.9v9h8.9
	C434.7,402.8,402.5,434.9,362.1,437.1z M395.1,324.6l-5.7-5.7l-28.8,25.2c-1.5-0.6-3-0.8-4.5-0.9c-7.8,0-14.1,6.5-14.1,14.5
	s6.4,14.6,14.1,14.6c7.8,0,14.1-6.5,14.1-14.6c0-1.5-0.2-3-0.7-4.4L395.1,324.6z"/>
</svg>
